<svg width="12" height="16" viewBox="0 0 12 16" fill="none" xmlns="http://www.w3.org/2000/svg">
    <path d="M6 0.666672C2.9349 0.666672 0.5 3.15886 0.5 6.16667C0.5 8.22917 1.15885 8.85938 4.82557 14.7031C5.36979 15.5625 6.60152 15.5625 7.14583 14.7031C10.8125 8.85938 11.5 8.22917 11.5 6.16667C11.5 3.13021 9.00777 0.666672 6 0.666672ZM6 13.9583C2.33333 8.11459 1.875 7.74224 1.875 6.16667C1.875 3.90365 3.70833 2.04167 6 2.04167C8.26307 2.04167 10.125 3.90365 10.125 6.16667C10.125 7.74224 9.66667 8.0573 6 13.9583Z"
          fill="#1B1B1B"/>
    <path d="M6.00004 8.45833C4.71102 8.45833 3.70837 7.45568 3.70837 6.16667C3.70837 4.90625 4.71102 3.875 6.00004 3.875C7.26046 3.875 8.29171 4.90625 8.29171 6.16667C8.29171 7.45568 7.26046 8.45833 6.00004 8.45833Z"
          fill="#1B1B1B"/>
</svg>
