<svg width="90" height="13" viewBox="0 0 90 13" fill="none" xmlns="http://www.w3.org/2000/svg">
    <path d="M0.278409 0.363636H2.40909L6.11364 9.40909H6.25L9.95455 0.363636H12.0852V12H10.4148V3.57955H10.3068L6.875 11.983H5.48864L2.05682 3.57386H1.94886V12H0.278409V0.363636ZM20.9844 3.42045C20.9238 2.88258 20.6738 2.46591 20.2344 2.17045C19.795 1.87121 19.242 1.72159 18.5753 1.72159C18.098 1.72159 17.6851 1.79735 17.3366 1.94886C16.9882 2.09659 16.7173 2.30114 16.5241 2.5625C16.3348 2.82008 16.2401 3.11364 16.2401 3.44318C16.2401 3.7197 16.3045 3.95833 16.4332 4.15909C16.5658 4.35985 16.7382 4.52841 16.9503 4.66477C17.1662 4.79735 17.3973 4.90909 17.6435 5C17.8897 5.08712 18.1264 5.15909 18.3537 5.21591L19.4901 5.51136C19.8613 5.60227 20.242 5.72538 20.6321 5.88068C21.0223 6.03598 21.384 6.24053 21.7173 6.49432C22.0507 6.74811 22.3196 7.0625 22.5241 7.4375C22.7325 7.8125 22.8366 8.26136 22.8366 8.78409C22.8366 9.44318 22.6662 10.0284 22.3253 10.5398C21.9882 11.0511 21.4976 11.4545 20.8537 11.75C20.2135 12.0455 19.4389 12.1932 18.5298 12.1932C17.6586 12.1932 16.9048 12.0549 16.2685 11.7784C15.6321 11.5019 15.134 11.1098 14.7741 10.6023C14.4143 10.0909 14.2154 9.48485 14.1776 8.78409H15.9389C15.973 9.20455 16.1094 9.55492 16.348 9.83523C16.5904 10.1117 16.8991 10.3182 17.2741 10.4545C17.6529 10.5871 18.0677 10.6534 18.5185 10.6534C19.0147 10.6534 19.456 10.5758 19.8423 10.4205C20.2325 10.2614 20.5393 10.0417 20.7628 9.76136C20.9863 9.47727 21.098 9.14583 21.098 8.76705C21.098 8.42235 20.9995 8.14015 20.8026 7.92045C20.6094 7.70076 20.3461 7.51894 20.0128 7.375C19.6832 7.23106 19.3101 7.10417 18.8935 6.99432L17.5185 6.61932C16.5866 6.36553 15.848 5.99242 15.3026 5.5C14.7609 5.00758 14.4901 4.35606 14.4901 3.54545C14.4901 2.875 14.6719 2.28977 15.0355 1.78977C15.3991 1.28977 15.8916 0.901515 16.5128 0.625C17.134 0.344697 17.8348 0.204545 18.6151 0.204545C19.4029 0.204545 20.098 0.342803 20.7003 0.619318C21.3063 0.895833 21.7836 1.27652 22.1321 1.76136C22.4806 2.24242 22.6624 2.79545 22.6776 3.42045H20.9844ZM24.9347 12V0.363636H26.6903V5.92045H26.8324L31.7131 0.363636H33.9233L29.2301 5.60227L33.9403 12H31.8267L28.0653 6.80114L26.6903 8.38068V12H24.9347ZM40.777 12H38.9134L43.1009 0.363636H45.1293L49.3168 12H47.4531L44.1634 2.47727H44.0724L40.777 12ZM41.0895 7.44318H47.1349V8.92045H41.0895V7.44318ZM50.9972 12V0.363636H55.1449C56.0502 0.363636 56.8002 0.528409 57.3949 0.857954C57.9896 1.1875 58.4347 1.63826 58.7301 2.21023C59.0256 2.77841 59.1733 3.41856 59.1733 4.13068C59.1733 4.84659 59.0237 5.49053 58.7244 6.0625C58.429 6.63068 57.982 7.08144 57.3835 7.41477C56.7888 7.74432 56.0407 7.90909 55.1392 7.90909H52.2869V6.42045H54.9801C55.5521 6.42045 56.0161 6.32197 56.3722 6.125C56.7282 5.92424 56.9896 5.65152 57.1562 5.30682C57.3229 4.96212 57.4062 4.57008 57.4062 4.13068C57.4062 3.69129 57.3229 3.30114 57.1562 2.96023C56.9896 2.61932 56.7263 2.35227 56.3665 2.15909C56.0104 1.96591 55.5407 1.86932 54.9574 1.86932H52.7528V12H50.9972ZM60.9801 12H59.1165L63.304 0.363636H65.3324L69.5199 12H67.6562L64.3665 2.47727H64.2756L60.9801 12ZM61.2926 7.44318H67.3381V8.92045H61.2926V7.44318ZM71.2003 12V0.363636H75.348C76.2495 0.363636 76.9976 0.518939 77.5923 0.829545C78.1908 1.14015 78.6378 1.57008 78.9332 2.11932C79.2287 2.66477 79.3764 3.29545 79.3764 4.01136C79.3764 4.72348 79.2268 5.35038 78.9276 5.89205C78.6321 6.42992 78.1851 6.84848 77.5866 7.14773C76.992 7.44697 76.2438 7.59659 75.3423 7.59659H72.2003V6.08523H75.1832C75.7514 6.08523 76.2135 6.00379 76.5696 5.84091C76.9295 5.67803 77.1927 5.44129 77.3594 5.13068C77.526 4.82008 77.6094 4.44697 77.6094 4.01136C77.6094 3.57197 77.5241 3.19129 77.3537 2.86932C77.187 2.54735 76.9238 2.30114 76.5639 2.13068C76.2079 1.95644 75.7401 1.86932 75.1605 1.86932H72.956V12H71.2003ZM76.9446 6.75L79.8196 12H77.8196L75.0014 6.75H76.9446ZM80.9389 1.875V0.363636H89.9446V1.875H86.3139V12H84.5639V1.875H80.9389Z"
          fill="#1B1B1B"/>
</svg>
