<svg width="32" height="26" viewBox="0 0 32 26" fill="none" xmlns="http://www.w3.org/2000/svg">
    <path d="M21.8947 16.25H18.5263C17.5789 16.25 16.8421 17.0118 16.8421 17.875V24.375C16.8421 25.2891 17.5789 26 18.5263 26H21.8947C22.7894 26 23.5789 25.2891 23.5789 24.375V17.875C23.5789 17.0118 22.7894 16.25 21.8947 16.25ZM21.0526 23.5625H19.3684V18.6875H21.0526V23.5625ZM30.3158 9.75H26.9474C26 9.75 25.2632 10.5118 25.2632 11.375V24.375C25.2632 25.2891 26 26 26.9474 26H30.3158C31.2104 26 32 25.2891 32 24.375V11.375C32 10.5118 31.2104 9.75 30.3158 9.75ZM29.4737 23.5625H27.7895V12.1875H29.4737V23.5625ZM13.4737 9.75H10.1053C9.1579 9.75 8.42105 10.5118 8.42105 11.375V24.375C8.42105 25.2891 9.1579 26 10.1053 26H13.4737C14.3683 26 15.1579 25.2891 15.1579 24.375V11.375C15.1579 10.5118 14.3683 9.75 13.4737 9.75ZM12.6316 23.5625H10.9474V12.1875H12.6316V23.5625ZM5.05263 17.875H1.68421C0.736842 17.875 0 18.6368 0 19.5V24.375C0 25.2891 0.736842 26 1.68421 26H5.05263C5.94737 26 6.73684 25.2891 6.73684 24.375V19.5C6.73684 18.6368 5.94737 17.875 5.05263 17.875ZM4.21053 23.5625H2.52632V20.3125H4.21053V23.5625ZM3.36842 13C4.73684 13 5.89474 11.9337 5.89474 10.5625C5.89474 10.3594 5.84211 10.1562 5.78947 9.95312L11.1053 4.82422C11.3158 4.875 11.5263 4.875 11.7895 4.875C12.1053 4.875 12.3685 4.82422 12.6841 4.72266L17.6842 8.58203C17.6842 8.73438 17.6842 8.83594 17.6842 8.9375C17.6842 10.3087 18.7894 11.375 20.2105 11.375C21.5789 11.375 22.7368 10.3087 22.7368 8.9375C22.7368 8.83594 22.6843 8.73438 22.6843 8.58203L27.6842 4.72266C28 4.82422 28.2631 4.875 28.6316 4.875C30 4.875 31.1579 3.80859 31.1579 2.4375C31.1579 1.11719 30 0 28.6316 0C27.2104 0 26.1053 1.11719 26.1053 2.4375C26.1053 2.58984 26.1053 2.69141 26.1053 2.84375L21.1052 6.70312C20.7896 6.60156 20.5263 6.5 20.158 6.5C19.842 6.5 19.5789 6.60156 19.2632 6.70312L14.2632 2.84375C14.2632 2.69141 14.3158 2.58984 14.3158 2.4375C14.3158 1.11719 13.1579 0 11.7895 0C10.3684 0 9.26316 1.11719 9.26316 2.4375C9.26316 2.69141 9.26316 2.89453 9.31579 3.09766L4 8.22656C3.78947 8.17578 3.57895 8.125 3.36842 8.125C1.94737 8.125 0.842105 9.24219 0.842105 10.5625C0.842105 11.9337 1.94737 13 3.36842 13Z"
          fill="#1B1B1B"/>
</svg>
