<svg width="16" height="16" viewBox="0 0 16 16" fill="none" xmlns="http://www.w3.org/2000/svg">
    <path d="M7.87467 3.47917L7.45801 3.87501C7.35381 3.97917 7.35381 4.14584 7.45801 4.22917L10.6871 7.45834H3.58301C3.43717 7.45834 3.33301 7.58334 3.33301 7.70834V8.29167C3.33301 8.43747 3.43717 8.54167 3.58301 8.54167H10.6871L7.45801 11.7917C7.35381 11.875 7.35381 12.0417 7.45801 12.1459L7.87467 12.5417C7.95801 12.6459 8.12467 12.6459 8.22887 12.5417L12.583 8.18747C12.6871 8.08334 12.6871 7.93747 12.583 7.83334L8.22887 3.47917C8.12467 3.37501 7.95801 3.37501 7.87467 3.47917Z"
          fill="#999999"/>
</svg>
