<svg width="10" height="10" viewBox="0 0 10 10" fill="none" xmlns="http://www.w3.org/2000/svg">
    <path d="M5.1312 0.0847455L5.57788 0.514123C5.68958 0.627117 5.68958 0.807907 5.57788 0.898303L2.11615 4.40112H9.73199C9.88833 4.40112 10 4.53671 10 4.6723V5.30507C10 5.46323 9.88833 5.57626 9.73199 5.57626H2.11615L5.57788 9.10167C5.68958 9.19207 5.68958 9.37286 5.57788 9.48589L5.1312 9.91523C5.04186 10.0283 4.86319 10.0283 4.75149 9.91523L0.0837259 5.19204C-0.0279083 5.07908 -0.0279083 4.92085 0.0837259 4.8079L4.75149 0.0847455C4.86319 -0.0282485 5.04186 -0.0282485 5.1312 0.0847455Z"
          fill="black"/>
</svg>
