<svg width="273" height="64" viewBox="0 0 273 64" fill="none" xmlns="http://www.w3.org/2000/svg">
    <path d="M29.995 32.994C27.5583 32.994 25.5591 31.3066 25.0593 28.9954H22.0603C22.5602 32.994 25.8715 35.9929 29.995 35.9929C34.056 35.9929 37.3674 32.994 37.8672 28.9954H34.8683C34.3685 31.3066 32.3692 32.994 29.995 32.994ZM35.5555 37.9922C33.7437 37.9922 32.9316 38.9918 29.995 38.9918C26.9961 38.9918 26.184 37.9922 24.372 37.9922C19.7487 37.9922 16 41.8028 16 46.4272C16 47.3009 16.6873 47.9886 17.5619 47.9886H42.3656C43.2403 47.9886 43.9901 47.3009 43.9901 46.4272C43.9901 41.8028 40.179 37.9922 35.5555 37.9922ZM19.1239 44.9897C19.7487 42.7405 21.8729 41.0531 24.372 40.9911C25.2467 40.9911 26.7462 41.9908 29.995 41.9908C33.1815 41.9908 34.681 40.9911 35.5555 40.9911C38.0546 41.0531 40.179 42.7405 40.8036 44.9897H19.1239ZM21.498 26.9961H38.492C38.7419 26.9961 38.9918 26.8082 38.9918 26.4963V24.497C38.9918 24.2471 38.7419 23.9972 38.492 23.9972H37.9922C37.9922 21.1222 36.1804 18.687 33.6813 17.6234L31.9943 20.9982V16.9996C31.9943 16.4998 31.4945 16 30.9947 16H28.9954C28.4332 16 27.9957 16.4998 27.9957 16.9996V20.9982L26.2464 17.6234C23.7472 18.687 21.9979 21.1222 21.9979 23.9972H21.498C21.1857 23.9972 20.9982 24.2471 20.9982 24.497V26.4963C20.9982 26.8082 21.1857 26.9961 21.498 26.9961Z"
          fill="#1B1B1B"/>
    <path d="M85.981 37.5547V30.8697C85.981 30.3073 85.857 29.7451 85.6051 29.2453L80.7329 17.8743C80.233 16.7497 79.1714 16 77.9838 16H68.987C67.2996 16 65.9881 17.3745 65.9881 18.9989V25.9965H62.9892C61.3018 25.9965 59.9902 27.371 59.9902 28.9954V41.9908C59.9902 45.302 62.6773 47.9886 65.9881 47.9886C69.2989 47.9886 71.986 45.302 71.986 41.9908H75.9846C75.9846 45.302 78.6716 47.9886 81.9824 47.9886C85.2932 47.9886 87.9803 45.302 87.9803 41.9908C87.9803 40.2414 87.1686 38.6795 85.981 37.5547ZM68.987 18.9989H77.9838L82.8581 30.4325C82.9201 30.5572 82.9821 30.6824 82.9821 30.8697V30.9947H75.3608C74.797 30.9947 74.2352 30.8071 73.7973 30.4949L68.987 26.6837V18.9989ZM65.9881 44.9897C64.3007 44.9897 62.9892 43.6778 62.9892 41.9908C62.9892 40.3663 64.3007 38.9918 65.9881 38.9918C67.6115 38.9918 68.987 40.3663 68.987 41.9908C68.987 43.6778 67.6115 44.9897 65.9881 44.9897ZM76.7963 38.9918H71.1103C70.1106 37.2425 68.1753 35.9929 65.9881 35.9929C64.8645 35.9929 63.8649 36.3678 62.9892 36.8676V28.9954H67.0497L71.924 32.869C72.9236 33.6187 74.1092 33.9936 75.3608 33.9936H82.9821V36.1179C82.6062 36.0553 82.2943 35.9929 81.9824 35.9929C79.7332 35.9929 77.7959 37.2425 76.7963 38.9918ZM81.9824 44.9897C80.295 44.9897 78.9835 43.6778 78.9835 41.9908C78.9835 40.3663 80.295 38.9918 81.9824 38.9918C83.6058 38.9918 84.9814 40.3663 84.9814 41.9908C84.9814 43.6778 83.6058 44.9897 81.9824 44.9897ZM98.9764 40.9911H92.9785V16.9996C92.9785 16.4998 92.4787 16 91.9789 16H90.9792C90.4174 16 89.9796 16.4998 89.9796 16.9996V42.9904C89.9796 43.5526 90.4174 43.9901 90.9792 43.9901H98.9764C99.4762 43.9901 99.976 43.5526 99.976 42.9904V41.9908C99.976 41.4909 99.4762 40.9911 98.9764 40.9911Z"
          fill="#1B1B1B"/>
    <path d="M133.033 21.9979C134.657 21.9979 136.032 20.6858 136.032 18.9989C136.032 17.3745 134.657 16 133.033 16C131.346 16 130.034 17.3745 130.034 18.9989C130.034 20.6858 131.346 21.9979 133.033 21.9979ZM135.47 41.9908C134.532 42.0531 133.783 42.6155 133.533 43.3653L132.033 47.9886H152.026L145.653 35.1182C145.279 34.4934 144.591 33.9936 143.841 33.9936C143.092 33.9936 142.467 34.4311 142.155 34.9933L140.155 38.3671L135.47 35.8054L134.095 28.1833C133.595 25.809 132.033 23.8722 129.972 22.8101C128.972 22.3103 127.785 22.0603 126.535 21.9979H122.037C121.537 22.0603 121.162 22.2478 120.912 22.5602L117.351 26.6837C117.039 26.9961 116.851 27.4959 116.851 27.9957C116.851 28.7455 117.288 29.3703 117.913 29.7451L138.593 40.9911L138.031 41.9908H135.47ZM122.724 28.8704L120.412 27.6209L122.662 24.9968H126.16L122.724 28.8704ZM127.91 31.682L130.971 28.308L132.096 33.9936L127.91 31.682ZM140.593 43.5526L143.779 38.1171L147.153 44.9897H139.718L140.593 43.5526ZM128.222 37.6799L120.1 33.1189L116.101 46.0517C116.039 46.2393 115.977 46.4268 115.977 46.5516C115.977 47.4264 116.664 48.051 117.476 48.051C118.163 48.051 118.788 47.6138 118.913 46.989L121.849 37.6173L126.035 39.9291V46.4892C126.035 47.3639 126.66 47.9886 127.535 47.9886C128.347 47.9886 129.034 47.3639 129.034 46.4892V38.9918C128.972 38.4296 128.659 37.9922 128.222 37.6799Z"
          fill="#1B1B1B"/>
    <path d="M198.015 33.9936H182.02V17.9993C182.02 16.9373 181.083 16 180.021 16H170.025C168.901 16 168.025 16.9373 168.025 17.9993V45.9893C168.025 47.114 168.901 47.9886 170.025 47.9886H198.015C199.076 47.9886 200.014 47.114 200.014 45.9893V35.9929C200.014 34.9309 199.076 33.9936 198.015 33.9936ZM171.024 18.9989H179.021V21.9979H174.523C174.211 21.9979 174.023 22.2478 174.023 22.4977V23.4973C174.023 23.8096 174.211 23.9972 174.523 23.9972H179.021V26.9961H174.523C174.211 26.9961 174.023 27.246 174.023 27.4959V28.4956C174.023 28.8079 174.211 28.9954 174.523 28.9954H179.021V31.9943H174.523C174.211 31.9943 174.023 32.2442 174.023 32.4941V33.4938C174.023 33.8061 174.211 33.9936 174.523 33.9936H179.021V35.618L171.024 43.6152V18.9989ZM197.015 44.9897H172.4L180.397 36.9925H182.02V41.4909C182.02 41.8032 182.208 41.9908 182.52 41.9908H183.52C183.77 41.9908 184.02 41.8032 184.02 41.4909V36.9925H187.019V41.4909C187.019 41.8032 187.207 41.9908 187.518 41.9908H188.518C188.768 41.9908 189.018 41.8032 189.018 41.4909V36.9925H192.017V41.4909C192.017 41.8032 192.205 41.9908 192.517 41.9908H193.516C193.766 41.9908 194.016 41.8032 194.016 41.4909V36.9925H197.015V44.9897Z"
          fill="#1B1B1B"/>
    <path d="M218.027 34.994H239.019C240.081 34.994 241.018 34.1193 241.018 32.9947V19.9993C241.018 18.9373 240.081 18 239.019 18H218.027C216.903 18 216.027 18.9373 216.027 19.9993V32.9947C216.027 34.1193 216.903 34.994 218.027 34.994ZM219.026 20.9989H238.02V31.995H219.026V20.9989ZM254.826 28.8711L251.139 25.1851C250.391 24.4353 249.392 24.0602 248.328 24.0602H245.017C243.893 24.0602 243.018 24.9351 243.018 26.0595V37.0556H218.027C216.903 37.0556 216.027 37.9305 216.027 39.0549V40.7419C216.027 43.3034 217.777 45.6152 220.338 45.9901C222.213 46.24 223.963 45.3653 225.024 43.9908C226.148 45.5526 228.147 46.4275 230.334 45.8651C231.898 45.4279 233.209 44.2407 233.709 42.6788C234.021 41.7416 234.083 40.8669 233.897 40.0546H244.079C243.955 40.8669 243.955 41.7416 244.267 42.6788C244.767 44.2407 246.141 45.4902 247.766 45.8651C251.015 46.6774 254.014 44.1783 254.014 41.0542C254.014 40.6795 253.952 40.3671 253.89 40.0546H255.014C255.513 40.0546 256.013 39.5547 256.013 39.0549V31.6827C256.013 30.6205 255.575 29.6209 254.826 28.8711ZM221.026 42.9911C219.902 42.9911 219.026 42.1164 219.026 40.9918C219.026 39.9298 219.902 38.9925 221.026 38.9925C222.087 38.9925 223.025 39.9298 223.025 40.9918C223.025 42.1164 222.087 42.9911 221.026 42.9911ZM229.023 42.9911C227.899 42.9911 227.023 42.1164 227.023 40.9918C227.023 39.9298 227.899 38.9925 229.023 38.9925C230.084 38.9925 231.022 39.9298 231.022 40.9918C231.022 42.1164 230.084 42.9911 229.023 42.9911ZM246.017 26.9968H248.328C248.578 26.9968 248.828 27.1218 249.016 27.3091L251.765 29.9957H246.017V26.9968ZM249.016 42.9911C247.892 42.9911 247.016 42.1164 247.016 40.9918C247.016 39.9298 247.892 38.9925 249.016 38.9925C250.077 38.9925 251.015 39.9298 251.015 40.9918C251.015 42.1164 250.077 42.9911 249.016 42.9911ZM253.014 36.9933H251.953C251.139 36.4311 250.077 35.9936 249.016 35.9936C247.892 35.9936 246.828 36.4311 246.017 36.9933V31.995H253.014V36.9933ZM224.524 22.9982H222.525C222.213 22.9982 222.025 23.2481 222.025 23.498V29.4959C222.025 29.8082 222.213 29.9957 222.525 29.9957H224.524C224.774 29.9957 225.024 29.8082 225.024 29.4959V23.498C225.024 23.2481 224.774 22.9982 224.524 22.9982ZM234.521 22.9982H232.521C232.21 22.9982 232.022 23.2481 232.022 23.498V29.4959C232.022 29.8082 232.21 29.9957 232.521 29.9957H234.521C234.771 29.9957 235.021 29.8082 235.021 29.4959V23.498C235.021 23.2481 234.771 22.9982 234.521 22.9982ZM229.523 22.9982H227.523C227.211 22.9982 227.023 23.2481 227.023 23.498V29.4959C227.023 29.8082 227.211 29.9957 227.523 29.9957H229.523C229.772 29.9957 230.022 29.8082 230.022 29.4959V23.498C230.022 23.2481 229.772 22.9982 229.523 22.9982Z"
          fill="#1B1B1B"/>
    <rect x="0.5" y="0.5" width="271.014" height="63" rx="3.5" stroke="#EAEAEA"/>
</svg>
