<svg width="252" height="45" viewBox="0 0 252 45" fill="none" xmlns="http://www.w3.org/2000/svg">
    <path d="M136.977 22.7239V29.5445C136.977 29.7978 136.768 30.0169 136.499 30.0169H131.071C126.687 29.9468 124.927 27.9408 124.86 23.5797C124.927 19.3538 126.497 17.2452 131.097 17.1818V17.1914H142.538V12.5223H131.097C122.946 12.5633 119.589 16.0019 119.427 23.3103L119.42 23.8837L119.427 23.8932C119.601 30.986 122.951 34.469 130.867 34.5854V34.5909H139.244C141.178 34.5909 142.565 32.9889 142.565 31.2995V22.7229L136.977 22.7239ZM181.827 34.5796V25.4929H195.749V20.9846H181.827V14.176C181.827 13.9158 182.039 13.7002 182.307 13.7002H196.072V9.03272H179.562C177.63 9.03272 176.239 10.6313 176.239 12.3241V34.5796H181.827ZM101.987 29.9361C101.714 29.9361 101.507 29.7187 101.507 29.462V25.5185H115.424V21.0137H101.507V17.6539C101.507 17.3972 101.714 17.1781 101.987 17.1781H115.753V12.5089H99.2416C97.3058 12.5089 95.9152 14.1144 95.9152 15.8037V31.3105C95.9152 33.0049 97.3058 34.607 99.2416 34.607H115.753V29.9361H101.987ZM86.8026 8.5083C84.1887 8.5083 82.5203 9.89125 81.2832 12.6725L74.0057 29.3021L66.723 12.6725C65.4843 9.89125 63.8158 8.5083 61.2002 8.5083C58.7537 8.5083 56.2261 10.2455 56.2261 14.0195V34.608H61.8041V14.5827L69.1299 31.0719C70.1151 33.3757 71.6972 34.8219 74.0006 34.8254H74.0061C76.3077 34.8213 77.8933 33.3757 78.8767 31.0719L86.2008 14.5827V34.608H91.7789V14.0195C91.7789 10.2455 89.2474 8.5083 86.8026 8.5083ZM155.276 25.5189L158.711 17.4968C158.819 17.2452 159.016 17.1784 159.165 17.1784H159.167C159.316 17.1784 159.516 17.2452 159.621 17.4968L163.061 25.5189H155.276ZM163.756 14.9756C162.819 12.9628 160.957 11.9821 159.168 11.9821H159.165C157.374 11.9821 155.513 12.9628 154.583 14.9756L145.454 34.6073H151.393L153.382 29.9416H164.954L166.945 34.6073H172.883L163.756 14.9756ZM246.074 12.5094V27.2785L236.483 14.2963C235.674 13.2865 234.773 12.5094 232.922 12.5094C231.223 12.5094 229.123 13.8427 229.123 16.3741V34.6212H234.709V19.8555L244.257 32.8805C245.089 34.0033 245.948 34.6212 247.86 34.6212C249.561 34.6212 251.659 33.4111 251.659 30.7547V12.5094H246.074ZM212.6 30.2478C206.896 30.2478 205.255 28.1699 205.255 23.5436V23.5196C205.255 19.0302 206.82 16.8239 212.6 16.8239C218.387 16.8239 219.948 19.0302 219.948 23.5196V23.5436C219.948 28.1699 218.304 30.2478 212.6 30.2478ZM225.387 23.5196C225.385 15.7833 222.272 12.1753 212.6 12.1753C202.935 12.1753 199.821 15.7833 199.815 23.5196V23.5351C199.815 31.1515 203.016 34.8246 212.6 34.8246C222.188 34.8246 225.387 31.1515 225.387 23.5351V23.5196Z" fill="#00B956"/>
    <path d="M18.4036 18.6096C16.8611 18.6096 15.6085 17.3687 15.6085 15.8403C15.6085 14.3084 16.8611 13.0676 18.4036 13.0676C19.946 13.0676 21.1952 14.3084 21.1952 15.8403C21.1952 17.3687 19.946 18.6096 18.4036 18.6096ZM22.6876 0.330078C10.3428 0.330078 0.340942 10.2537 0.340942 22.4983C0.340942 33.1237 7.87897 42.0033 17.936 44.165V24.2715L17.9374 24.2701C17.9599 23.3099 18.731 22.5363 19.6903 22.5004L20.6203 22.499H22.513C22.6441 22.499 22.7511 22.3963 22.758 22.2679L22.7594 0.334049M38.087 34.5916C36.5462 34.5916 35.2936 33.3507 35.2936 31.8188C35.2936 30.2921 36.5462 29.0512 38.087 29.0512C39.6277 29.0512 40.8803 30.2921 40.8803 31.8188C40.8803 33.3507 39.6277 34.5916 38.087 34.5916ZM31.5393 34.5916C29.9986 34.5916 28.7477 33.3507 28.7477 31.8188C28.7477 30.2921 29.9986 29.0512 31.5393 29.0512C33.0818 29.0512 34.3326 30.2921 34.3326 31.8188C34.3326 33.3507 33.0818 34.5916 31.5393 34.5916ZM24.9882 34.5916C23.4474 34.5916 22.1931 33.3507 22.1931 31.8188C22.1931 30.2921 23.4474 29.0512 24.9882 29.0512C26.5324 29.0512 27.7832 30.2921 27.7832 31.8188C27.7832 33.3507 26.5324 34.5916 24.9882 34.5916ZM25.4454 0.497154V22.4976V23.3534V23.3689L25.4399 23.3744C25.4316 24.3637 24.6186 25.163 23.6179 25.163H22.7587H20.8677C20.7297 25.163 20.6193 25.2725 20.6193 25.4077V44.5738C21.3008 44.6355 21.9874 44.6697 22.6862 44.6697C35.0293 44.6697 45.0329 34.7426 45.0329 22.4981C45.0329 11.1829 36.4859 1.84587 25.4454 0.497154Z" fill="#00B956"/>
</svg>
