<svg width="242" height="45" viewBox="0 0 242 45" fill="none" xmlns="http://www.w3.org/2000/svg">
    <path d="M23.4857 0C10.4982 0 0 10.0576 0 22.5C0 34.9424 10.4982 45 23.4857 45C36.4732 45 46.9714 34.9424 46.9714 22.5C46.9714 10.0576 36.3649 0 23.4857 0ZM20.1306 32.0392L18.3989 36.9124C11.9052 34.8387 7.57603 28.9286 7.57603 22.2926C7.57603 15.6567 11.9052 9.85023 18.5072 7.67281L20.2388 12.5461C15.9097 13.894 13.0957 17.8341 13.0957 22.1889C12.9875 26.7512 15.8014 30.6912 20.1306 32.0392ZM28.2478 37.0161L26.6243 32.1429C31.0617 30.7949 33.9839 26.8548 33.9839 22.3963C33.9839 17.9378 31.0617 14.1014 26.7326 12.7535L28.4642 7.7765C35.0662 9.85023 39.5036 15.7604 39.5036 22.3963C39.3953 29.1359 34.8497 35.0461 28.2478 37.0161Z" fill="#00BEF0"/>
    <path d="M238.428 26.44L241.026 29.4469C238.32 32.1428 234.965 32.8686 232.259 32.8686C229.662 32.8686 227.822 32.4539 226.199 31.728C222.735 30.0691 221.004 26.7511 221.004 22.7073C221.004 16.5898 225.333 12.0276 231.718 12.0276C238.861 12.0276 242.325 17.1082 241.784 23.7442H225.549C225.657 25.4032 226.632 26.9585 228.038 27.788C229.229 28.5138 230.636 28.8248 232.476 28.8248C234.532 28.9285 236.589 28.2027 238.428 26.44ZM225.766 20.2188H237.238C236.913 17.834 234.857 15.7603 231.61 15.7603C228.147 15.7603 226.09 18.0414 225.766 20.2188ZM116.671 32.3502H122.515L113.316 22.0852L122.407 12.4423H116.671L109.744 20.1151H107.688V12.4423H103.25V32.2465H107.688V24.3663H109.744L116.671 32.3502ZM135.827 16.0714C132.039 16.0714 129.55 18.8709 129.55 22.3962C129.55 25.9216 132.039 28.7211 135.827 28.7211C139.615 28.7211 141.996 26.0253 141.996 22.3962C141.996 18.9746 139.724 16.0714 135.827 16.0714ZM136.585 12.0276C142.429 12.0276 146.759 16.3824 146.759 22.3962C146.759 28.3064 142.538 32.8686 136.585 32.8686C133.771 32.8686 131.498 31.9354 129.875 30.2764V40.6451H125.329V12.546H129.767V14.9308C131.498 12.9608 133.663 12.0276 136.585 12.0276ZM195.462 12.546H176.954V16.4861H183.989V32.3502H188.535V16.4861H195.57V12.546H195.462ZM100.112 12.546H81.6047V16.4861H88.6395V32.3502H93.0769V16.4861H100.112V12.546ZM76.085 22.4999C76.085 18.7672 73.3793 16.0714 69.5912 16.0714C65.9115 16.0714 63.0975 18.7672 63.0975 22.4999C63.0975 26.2327 65.8032 28.9285 69.5912 28.9285C73.271 28.9285 76.085 26.2327 76.085 22.4999ZM58.5519 22.4999C58.5519 16.5898 63.314 12.1313 69.6995 12.1313C76.085 12.1313 80.847 16.5898 80.847 22.4999C80.847 28.4101 76.085 32.9723 69.6995 32.9723C63.314 32.9723 58.5519 28.4101 58.5519 22.4999ZM217.432 12.546V32.3502H212.995V19.5967L202.172 32.3502H198.6V12.546H203.038V25.2995L213.86 12.546H217.432ZM173.924 32.3502H169.487V12.546H173.924V32.3502ZM162.343 25.6105C162.343 23.8479 161.045 22.6036 159.313 22.6036H154.767V28.7211H159.313C161.045 28.7211 162.343 27.3732 162.343 25.6105ZM166.889 25.6105C166.889 29.5506 163.859 32.3502 159.53 32.3502H150.438V12.546H154.876V18.9746H159.962C164.183 18.9746 166.889 21.5668 166.889 25.6105Z" fill="#181716"/>
</svg>
