<svg width="301" height="47" viewBox="0 0 301 47" fill="none" xmlns="http://www.w3.org/2000/svg">
    <path d="M41.4352 9.05078C42.534 10.4814 43.4642 12.0356 44.207 13.6822L23.1367 29.3235L14.3309 23.7647V17.0772L23.1367 22.636L41.4352 9.05078Z"
          fill="#21A038"/>
    <path d="M5.34385 23.2927C5.34385 22.9926 5.35112 22.6945 5.36565 22.3981L0.029064 22.1348C0.0109 22.5189 6.44902e-06 22.9067 6.44902e-06 23.2981C-0.00226412 26.3562 0.595054 29.3846 1.75771 32.2096C2.92036 35.0347 4.62545 37.6008 6.77518 39.7606L10.5606 35.9505C8.90577 34.2908 7.59303 32.3181 6.69777 30.1458C5.80251 27.9736 5.34239 25.6445 5.34385 23.2927Z"
          fill="url(#paint0_linear_742_2453)"/>
    <path d="M23.1318 5.37997C23.4297 5.37997 23.7257 5.39095 24.0199 5.40558L24.287 0.0296509C23.9044 0.0113593 23.5193 0.00221454 23.1318 0.00221454C20.0936 -0.00151652 17.0848 0.599133 14.2778 1.76967C11.4708 2.94021 8.92113 4.65759 6.77509 6.8232L10.5605 10.6352C12.2086 8.96822 14.1678 7.64577 16.3252 6.7439C18.4827 5.84202 20.7958 5.37849 23.1318 5.37997Z"
          fill="url(#paint1_linear_742_2453)"/>
    <path d="M23.1318 41.206C22.834 41.206 22.5379 41.206 22.2419 41.1822L21.9749 46.5563C22.3587 46.5758 22.7444 46.5856 23.1318 46.5856C26.1688 46.5887 29.1762 45.9877 31.9817 44.8168C34.7871 43.646 37.3352 41.9283 39.4796 39.7628L35.7015 35.9526C34.053 37.6187 32.094 38.9404 29.937 39.842C27.78 40.7435 25.4673 41.2071 23.1318 41.206Z"
          fill="url(#paint2_linear_742_2453)"/>
    <path d="M33.1586 8.50568L37.656 5.16744C33.5453 1.81541 28.4141 -0.00930486 23.1247 3.56824e-05V5.37962C26.7065 5.37515 30.2051 6.46518 33.1586 8.50568Z"
          fill="url(#paint3_linear_742_2453)"/>
    <path d="M46.2622 23.2928C46.265 21.8934 46.1435 20.4963 45.8988 19.1187L40.9201 22.8136C40.9201 22.9728 40.9201 23.1319 40.9201 23.2928C40.9214 25.7956 40.4004 28.2708 39.391 30.5579C38.3815 32.8449 36.9061 34.8928 35.0604 36.5689L38.6514 40.5657C41.051 38.3842 42.9685 35.7193 44.2796 32.7438C45.5908 29.7681 46.2662 26.5482 46.2622 23.2928Z"
          fill="#21A038"/>
    <path d="M23.132 41.2059C20.6464 41.2067 18.1884 40.6819 15.917 39.6654C13.6457 38.6489 11.6117 37.1633 9.94668 35.3049L5.97968 38.9194C8.14566 41.3362 10.7919 43.2674 13.7468 44.5881C16.7016 45.9087 19.8991 46.5892 23.132 46.5854V41.2059Z"
          fill="url(#paint4_linear_742_2453)"/>
    <path d="M11.2036 10.0165L7.61437 6.01978C5.21412 8.20083 3.29592 10.8656 1.98416 13.8412C0.672423 16.8168 -0.00357627 20.0369 1.42281e-05 23.2926H5.34387C5.34276 20.7899 5.86382 18.3147 6.87325 16.0277C7.88269 13.7407 9.35799 11.6927 11.2036 10.0165Z"
          fill="url(#paint5_linear_742_2453)"/>
    <mask id="mask0_742_2453" style="mask-type:luminance" maskUnits="userSpaceOnUse" x="58" y="8" width="243"
          height="31">
        <path d="M300.111 8.10352H58.7173V38.8966H300.111V8.10352Z" fill="white"/>
    </mask>
    <g mask="url(#mask0_742_2453)">
        <path d="M133.486 13.3208L140.105 8.46606H117.954V37.6385H140.105V32.7838H124.275V25.3113H137.778V20.4566H124.275V13.3208H133.486Z"
              fill="#21A038"/>
        <path d="M103.05 19.8305H95.3597V13.3187H107.633L114.247 8.44922H89.043V37.6217H102.236C109.633 37.6217 113.878 34.2838 113.878 28.4627C113.878 22.8937 110.033 19.8305 103.05 19.8305ZM101.952 32.7655H95.3597V24.6822H101.952C105.953 24.6822 107.828 26.0368 107.828 28.7239C107.828 31.4109 105.832 32.7655 101.952 32.7655Z"
              fill="#21A038"/>
        <path d="M156.387 8.46167H144.33V37.634H150.649V29.37H156.387C164.079 29.37 168.838 25.3398 168.838 18.9003C168.838 12.4609 164.079 8.46167 156.387 8.46167ZM156.253 24.5116H150.649V13.3201H156.253C160.3 13.3201 162.533 15.3086 162.533 18.9181C162.533 22.5275 160.3 24.5116 156.253 24.5116Z"
              fill="#21A038"/>
        <path d="M79.5591 30.7496C77.9265 31.6298 76.0974 32.0856 74.2411 32.0747C68.685 32.0747 64.6543 28.1255 64.6543 22.6873C64.6543 17.249 68.685 13.2911 74.2411 13.2911C76.2448 13.2572 78.2069 13.8622 79.8407 15.0176L84.2614 11.7762L83.9624 11.5647C81.3837 9.30737 77.9381 8.11182 73.9942 8.11182C69.7164 8.11182 65.8375 9.54475 63.068 12.1517C61.6677 13.4939 60.5603 15.1092 59.8145 16.8966C59.0689 18.684 58.7009 20.6052 58.734 22.5404C58.7044 24.4954 59.0706 26.4362 59.8108 28.2471C60.5509 30.058 61.6499 31.7017 63.0421 33.0804C65.8245 35.7909 69.6947 37.2842 73.9421 37.2842C78.3802 37.2842 82.2592 35.7433 84.8856 32.938L80.9286 30.003L79.5591 30.7496Z"
              fill="#21A038"/>
        <path d="M193.897 19.8305H186.21V13.3187H202.729V8.44922H179.889V37.6217H193.066C200.462 37.6217 204.707 34.2838 204.707 28.4627C204.724 22.8937 200.88 19.8305 193.897 19.8305ZM192.799 32.7655H186.21V24.6822H192.799C196.8 24.6822 198.674 26.0368 198.674 28.7239C198.674 31.4109 196.696 32.7655 192.799 32.7655Z"
              fill="#21A038"/>
        <path d="M276.557 37.5799H270.15V8.40747H276.557V20.6601H280.045L289.462 8.40747H296.723L285.553 22.2851L298.523 37.5799H290.022L280.489 26.1067H276.557V37.5799Z"
              fill="#21A038"/>
        <path d="M227.985 32.036H214.431L212.133 37.701H205.315L218.027 8.52856H224.844L237.35 37.701H230.282L227.985 32.036ZM225.862 26.7502L221.248 15.4202L216.608 26.7502H225.862Z"
              fill="#21A038"/>
        <path d="M245.976 8.52856V20.7105H259.234V8.52856H265.84V37.701H259.234V26.206H245.976V37.701H239.37V8.52856H245.976Z"
              fill="#21A038"/>
    </g>
    <defs>
        <linearGradient id="paint0_linear_742_2453" x1="7.85594" y1="39.0894" x2="1.94457" y2="22.1201"
                        gradientUnits="userSpaceOnUse">
            <stop offset="0.14" stop-color="#F1E813"/>
            <stop offset="0.3" stop-color="#E6E418"/>
            <stop offset="0.58" stop-color="#C9DA26"/>
            <stop offset="0.89" stop-color="#A2CC39"/>
        </linearGradient>
        <linearGradient id="paint1_linear_742_2453" x1="8.30085" y1="7.77436" x2="23.3654" y2="2.07356"
                        gradientUnits="userSpaceOnUse">
            <stop offset="0.06" stop-color="#0FA7DF"/>
            <stop offset="0.54" stop-color="#0098F8"/>
            <stop offset="0.92" stop-color="#0290EA"/>
        </linearGradient>
        <linearGradient id="paint2_linear_742_2453" x1="21.6225" y1="43.3388" x2="38.6391" y2="39.5214"
                        gradientUnits="userSpaceOnUse">
            <stop offset="0.12" stop-color="#A2CC39"/>
            <stop offset="0.28" stop-color="#86C239"/>
            <stop offset="0.87" stop-color="#219F38"/>
        </linearGradient>
        <linearGradient id="paint3_linear_742_2453" x1="22.0131" y1="1.80177" x2="36.5692" y2="6.26236"
                        gradientUnits="userSpaceOnUse">
            <stop offset="0.06" stop-color="#0290EA"/>
            <stop offset="0.79" stop-color="#0C89CA"/>
        </linearGradient>
        <linearGradient id="paint4_linear_742_2453" x1="7.32017" y1="38.2645" x2="23.1717" y2="44.1475"
                        gradientUnits="userSpaceOnUse">
            <stop offset="0.13" stop-color="#F1E813"/>
            <stop offset="0.3" stop-color="#EAE616"/>
            <stop offset="0.53" stop-color="#D8DF1F"/>
            <stop offset="0.8" stop-color="#BAD52D"/>
            <stop offset="0.98" stop-color="#A2CC39"/>
        </linearGradient>
        <linearGradient id="paint5_linear_742_2453" x1="1.99079" y1="23.9438" x2="8.42069" y2="7.33403"
                        gradientUnits="userSpaceOnUse">
            <stop offset="0.07" stop-color="#A2CC39"/>
            <stop offset="0.26" stop-color="#81C45E"/>
            <stop offset="0.92" stop-color="#0FA7DF"/>
        </linearGradient>
    </defs>
</svg>
