<svg width="171" height="45" viewBox="0 0 171 45" fill="none" xmlns="http://www.w3.org/2000/svg">
    <path d="M50.5777 14.9866H50.0895V44.938H62.6295C68.4641 44.938 72.2337 41.5727 72.2337 36.3652C72.2337 33.761 71.3668 31.8972 69.4239 30.3234C68.7149 29.7456 67.9263 29.3429 67.1041 29.0211C67.7372 28.72 68.3416 28.3655 68.8749 27.9025C70.3096 26.6153 71.0642 24.8212 71.0642 22.7071C71.0642 20.5224 70.2219 18.7154 68.4896 17.1825C66.3777 15.3536 63.955 14.9866 60.73 14.9866H50.5777ZM60.0366 20.882C60.5605 20.882 61.5373 20.882 62.3514 21.2189C63.2335 21.5807 63.7811 22.5328 63.7811 23.7086C63.7811 24.5084 63.4995 25.2983 63.0475 25.7686C62.3452 26.5185 61.523 26.5787 60.5985 26.5787C60.5985 26.5787 57.7847 26.5787 57.0287 26.5787C57.0287 25.8288 57.0287 21.6328 57.0287 20.882C57.7521 20.882 60.0366 20.882 60.0366 20.882ZM60.8994 32.3262C61.8078 32.3262 62.7462 32.4165 63.4561 33.0692C64.0489 33.6074 64.4303 34.6219 64.4303 35.654C64.4303 36.5175 64.1629 37.3784 63.6971 38.0155C62.9268 39.0348 62.0886 39.2344 60.8998 39.2344C60.8998 39.2344 57.8817 39.2344 57.1146 39.2344C57.1146 38.457 57.1146 33.1049 57.1146 32.3262C57.8813 32.3262 60.8994 32.3262 60.8994 32.3262Z"
          fill="#0A2972"/>
    <path d="M97.3049 14.9866H72.5726V20.7401C72.5726 20.7401 80.4369 20.7547 81.3077 20.756C81.3077 21.6586 81.3077 44.9999 81.3077 44.9999H88.3302C88.3302 44.9999 88.3302 21.6508 88.3302 20.7491C89.184 20.7465 95.9798 20.7491 95.9798 20.7491L98.0036 14.9866H97.3049Z"
          fill="#0A2972"/>
    <path d="M120.087 14.9866H99.7177V44.9767H111.368C114.007 44.9767 116.483 44.3378 118.161 43.2226C119.881 42.0898 121.935 39.841 121.935 35.5632C121.935 31.5513 119.943 29.3959 118.758 28.4679C117.491 27.4843 115.137 26.3124 111.11 26.3124C111.11 26.3124 107.516 26.3124 106.724 26.3124C106.724 25.5672 106.724 21.4998 106.724 20.7538C107.63 20.7538 118.512 20.7538 118.512 20.7538L120.575 14.9866H120.087ZM110.24 32.0211C111.226 32.0211 112.161 32.2535 112.736 32.6458C113.652 33.2606 114.095 34.2145 114.095 35.5632C114.095 36.9813 113.661 37.6692 113.333 38.0629C112.714 38.8162 111.773 39.1819 110.455 39.1819C110.455 39.1819 107.489 39.1819 106.724 39.1819C106.724 38.3989 106.724 32.8037 106.724 32.0211C107.477 32.0211 110.24 32.0211 110.24 32.0211Z"
          fill="#0A2972"/>
    <path d="M126.472 16.2947C126.471 16.2951 126.351 16.3545 126.248 16.4053C126.248 16.6552 126.245 22.1867 126.245 22.8196C126.591 22.6569 127.103 22.4182 127.103 22.4182C127.722 22.0611 131.05 20.2266 134.055 20.0764C135.294 20.0136 136.406 20.3707 137.184 21.0814C137.82 21.6614 138.17 22.438 138.17 23.2683C138.17 26.0196 136.189 27.4058 133.797 28.8101C127.92 32.2007 124.279 35.7347 124.279 42.8683C124.279 42.8683 124.286 44.56 124.288 44.9253C124.738 44.9248 143.376 44.9222 143.827 44.9222C143.828 44.5196 143.826 39.5405 143.827 39.1369C143.377 39.1369 131.725 39.1369 131.725 39.1369L131.797 38.8577C132.29 36.9522 133.54 35.5045 135.978 34.015C135.982 34.0129 139.018 32.2098 139.018 32.2098C142.591 30.1042 144.856 26.6194 144.927 23.113V22.9039C144.927 20.5686 144.117 18.5401 142.583 17.0347C140.789 15.2716 138.17 14.3406 135.007 14.3406C132.252 14.3406 128.902 15.1077 126.472 16.2947Z"
          fill="#FC1921"/>
    <path d="M157.959 14.9502C157.822 15.1537 145.499 33.7448 145.426 33.8545C145.426 33.9784 145.426 38.7179 145.426 39.1283C145.879 39.1283 159.325 39.1283 159.325 39.1283C159.325 39.1283 159.325 44.5638 159.325 44.9825C159.74 44.9825 164.728 44.9825 165.143 44.9825C165.143 44.5634 165.143 39.1283 165.143 39.1283H168.976L171 33.352H165.143V27.4364H159.325V33.352H152.458C152.954 32.5367 162.922 17.4503 164.583 14.9502C163.845 14.9502 158.19 14.9502 157.959 14.9502Z"
          fill="#FC1921"/>
    <path d="M28.8863 14.9854H5.20959C5.20959 14.9854 5.92355 17.1886 6.7515 18.3162C6.97727 18.3162 27.8174 18.3162 27.8174 18.3162C27.8174 18.3162 31.8378 21.3489 33.7611 26.6502H11.6182C7.79762 23.6515 4.93644 19.5983 3.43387 14.9854C3.62432 14.4205 3.83577 13.8659 4.06735 13.3212H28.8752C30.8096 12.0271 32.7319 9.98996 32.7319 9.98996H5.80284C6.16004 9.41948 6.54004 8.86491 6.94284 8.32669H34.1402C34.8582 7.48903 36.3008 4.99541 36.3008 4.99541H9.94261C10.5761 4.40772 11.2409 3.85272 11.9347 3.33128H37.1096C37.7994 1.74071 38.2916 0 38.2916 0H10.9458C5.72058 3.57952 1.78064 8.82404 0 14.9854C1.76544 21.0779 5.66917 26.3641 10.9329 29.9772H38.2201C38.2201 29.9772 37.7404 22.0046 28.8863 14.9854Z"
          fill="#0A2972"/>
</svg>
