<svg width="15" height="16" viewBox="0 0 15 16" fill="none" xmlns="http://www.w3.org/2000/svg">
    <g clip-path="url(#clip0_1067_442)">
        <path d="M7.3667 1.5H12.8667C13.419 1.5 13.8667 1.94772 13.8667 2.5V8V13.5C13.8667 14.0523 13.419 14.5 12.8667 14.5H7.3667" stroke="#1B1B1B" stroke-width="1.3"/>
        <path d="M4.54167 3.47916L4.125 3.87499C4.0208 3.97916 4.0208 4.14582 4.125 4.22916L7.35413 7.45832H0.25C0.104167 7.45832 0 7.58332 0 7.70832V8.29166C0 8.43746 0.104167 8.54166 0.25 8.54166H7.35413L4.125 11.7917C4.0208 11.875 4.0208 12.0417 4.125 12.1459L4.54167 12.5417C4.625 12.6459 4.79167 12.6459 4.89587 12.5417L9.25 8.18746C9.35413 8.08332 9.35413 7.93746 9.25 7.83332L4.89587 3.47916C4.79167 3.37499 4.625 3.37499 4.54167 3.47916Z" fill="#1B1B1B"/>
    </g>
    <defs>
        <clipPath id="clip0_1067_442">
            <rect width="15" height="16" fill="white"/>
        </clipPath>
    </defs>
</svg>
