<svg width="16" height="15" viewBox="0 0 16 15" fill="none" xmlns="http://www.w3.org/2000/svg">
    <path d="M14.3125 1.03125C12.5 -0.5 9.71882 -0.28125 8.00002 1.5C6.25002 -0.28125 3.46877 -0.5 1.65627 1.03125C-0.687477 3 -0.343727 6.2188 1.34377 7.9375L6.81252 13.5312C7.12502 13.8438 7.53122 14.0312 8.00002 14.0312C8.43752 14.0312 8.84382 13.8438 9.15622 13.5312L14.6562 7.9375C16.3125 6.2188 16.6562 3 14.3125 1.03125ZM13.5625 6.875L8.09382 12.4688C8.03122 12.5312 7.96882 12.5312 7.87502 12.4688L2.40627 6.875C1.25002 5.7188 1.03127 3.53125 2.62502 2.1875C3.84377 1.15625 5.71882 1.3125 6.90622 2.5L7.64153 3.25628C7.83787 3.45822 8.16218 3.45822 8.35851 3.25628L9.09382 2.5C10.25 1.3125 12.125 1.15625 13.3438 2.15625C14.9375 3.53125 14.7188 5.7188 13.5625 6.875Z" fill="#1B1B1B"/>
</svg>
