<svg width="14" height="12" viewBox="0 0 14 12" fill="none" xmlns="http://www.w3.org/2000/svg">
    <path d="M12.1287 1.225C10.656 -3.42727e-06 8.3963 0.174997 6.99977 1.6C5.5779 0.174997 3.31813 -3.42727e-06 1.84548 1.225C-0.0588195 2.8 0.220477 5.37504 1.59157 6.75L6.03493 11.225C6.28884 11.475 6.61887 11.625 6.99977 11.625C7.35524 11.625 7.68536 11.475 7.93919 11.225L12.4079 6.75C13.7537 5.37504 14.0329 2.8 12.1287 1.225ZM11.5193 5.9L7.07599 10.375C7.02512 10.425 6.97442 10.425 6.89821 10.375L2.45485 5.9C1.5154 4.97504 1.33766 3.225 2.63259 2.15C3.62282 1.325 5.1463 1.45 6.11106 2.4L6.644 2.9397C6.83976 3.13795 7.15979 3.13795 7.35555 2.9397L7.88849 2.4C8.8279 1.45 10.3513 1.325 11.3416 2.125C12.6365 3.225 12.4588 4.97504 11.5193 5.9Z"
          fill="black"/>
</svg>
