<svg width="179" height="64" viewBox="0 0 179 64" fill="none" xmlns="http://www.w3.org/2000/svg">
    <g clip-path="url(#clip0_662_1770)">
        <path d="M53.1283 29.4638L37.262 16.7515C36.6838 16.2505 35.8486 16 35.0137 16C34.1144 16 33.2792 16.2505 32.7012 16.7515L16.8349 29.4638C16.6421 29.6518 16.5137 29.9023 16.5137 30.2153C16.5137 30.4658 16.5779 30.7162 16.7064 30.8415L17.413 31.6557C17.5414 31.8434 17.8626 31.9687 18.1838 31.9687C18.4408 31.9687 18.6335 31.9062 18.8262 31.7807L20.6248 30.3405V33.9726H20.5605V46.998C20.5605 47.5615 21.0102 48 21.5883 48H48.3748C48.8887 48 49.4026 47.5615 49.4026 46.998V30.3405L51.137 31.7807C51.3296 31.9062 51.5223 32.0312 51.7792 32.0312C52.1005 32.0312 52.4218 31.8434 52.6144 31.6557L53.2567 30.8415C53.3852 30.7162 53.5137 30.4658 53.5137 30.2153C53.5137 29.9023 53.3209 29.6518 53.1283 29.4638ZM46.3192 29.9648H46.2551V44.9941H39.1248V35.9765C39.1248 34.912 38.1611 33.9726 37.0692 33.9726H32.9581C31.8019 33.9726 30.9026 34.912 30.9026 35.9765V44.9941H23.6439V28.1488H23.7081V27.8982L35.0137 18.818L46.3192 27.8982V29.9648Z"
              fill="#1B1B1B"/>
    </g>
    <g clip-path="url(#clip1_662_1770)">
        <path d="M102.744 18.3306C98.6651 14.8358 92.4059 15.3351 88.5377 19.4004C84.5992 15.3351 78.3399 14.8358 74.2607 18.3306C68.986 22.8238 69.7596 30.17 73.5574 34.0925L85.8651 46.8589C86.5684 47.5723 87.4826 48 88.5377 48C89.5223 48 90.4367 47.5723 91.1397 46.8589L103.518 34.0925C107.245 30.17 108.019 22.8238 102.744 18.3306ZM101.056 31.6676L88.7488 44.4342C88.6079 44.5766 88.4674 44.5766 88.2563 44.4342L75.9486 31.6676C73.3464 29.0288 72.8541 24.0363 76.441 20.9695C79.1838 18.6159 83.4037 18.9725 86.076 21.6827L88.5377 24.2502L90.9993 21.6827C93.6014 18.9725 97.8212 18.6159 100.564 20.8981C104.151 24.0363 103.659 29.0288 101.056 31.6676Z"
              fill="#1B1B1B"/>
    </g>
    <g clip-path="url(#clip2_662_1770)">
        <path d="M138.25 40H135.75C135.312 40 135 40.375 135 40.75V43.25C135 43.6876 135.312 44 135.75 44H138.25C138.625 44 139 43.6876 139 43.25V40.75C139 40.375 138.625 40 138.25 40ZM138.25 28H135.75C135.312 28 135 28.375 135 28.75V31.25C135 31.6875 135.312 32 135.75 32H138.25C138.625 32 139 31.6875 139 31.25V28.75C139 28.375 138.625 28 138.25 28ZM132.25 28H129.75C129.312 28 129 28.375 129 28.75V31.25C129 31.6875 129.312 32 129.75 32H132.25C132.625 32 133 31.6875 133 31.25V28.75C133 28.375 132.625 28 132.25 28ZM132.25 40H129.75C129.312 40 129 40.375 129 40.75V43.25C129 43.6876 129.312 44 129.75 44H132.25C132.625 44 133 43.6876 133 43.25V40.75C133 40.375 132.625 40 132.25 40ZM132.25 34H129.75C129.312 34 129 34.375 129 34.75V37.25C129 37.6876 129.312 38 129.75 38H132.25C132.625 38 133 37.6876 133 37.25V34.75C133 34.375 132.625 34 132.25 34ZM138.25 34H135.75C135.312 34 135 34.375 135 34.75V37.25C135 37.6876 135.312 38 135.75 38H138.25C138.625 38 139 37.6876 139 37.25V34.75C139 34.375 138.625 34 138.25 34ZM156.25 40H153.75C153.312 40 153 40.375 153 40.75V43.25C153 43.6876 153.312 44 153.75 44H156.25C156.625 44 157 43.6876 157 43.25V40.75C157 40.375 156.625 40 156.25 40ZM156.25 34H153.75C153.312 34 153 34.375 153 34.75V37.25C153 37.6876 153.312 38 153.75 38H156.25C156.625 38 157 37.6876 157 37.25V34.75C157 34.375 156.625 34 156.25 34ZM161.5 28H155V17.5C155 16.6875 154.312 16 153.5 16H140.5C139.625 16 139 16.6875 139 17.5V22H137V17C137 16.5 136.5 16 136 16H135C134.438 16 134 16.5 134 17V22H130V17C130 16.5 129.5 16 129 16H128C127.438 16 127 16.5 127 17V22H124.5C123.625 22 123 22.6875 123 23.5V47C123 47.5624 123.438 48 124 48H125C125.5 48 126 47.5624 126 47V25H142V19H152V31H160V47C160 47.5624 160.438 48 161 48H162C162.5 48 163 47.5624 163 47V29.5C163 28.6875 162.312 28 161.5 28ZM148.25 22H145.75C145.312 22 145 22.375 145 22.75V25.25C145 25.6875 145.312 26 145.75 26H148.25C148.625 26 149 25.6875 149 25.25V22.75C149 22.375 148.625 22 148.25 22ZM148.25 34H145.75C145.312 34 145 34.375 145 34.75V37.25C145 37.6876 145.312 38 145.75 38H148.25C148.625 38 149 37.6876 149 37.25V34.75C149 34.375 148.625 34 148.25 34ZM148.25 28H145.75C145.312 28 145 28.375 145 28.75V31.25C145 31.6875 145.312 32 145.75 32H148.25C148.625 32 149 31.6875 149 31.25V28.75C149 28.375 148.625 28 148.25 28Z"
              fill="#1B1B1B"/>
    </g>
    <rect x="0.5" y="0.5" width="178" height="63" rx="3.5" stroke="#EAEAEA"/>
    <defs>
        <clipPath id="clip0_662_1770">
            <rect width="38" height="32" fill="white" transform="translate(16 16)"/>
        </clipPath>
        <clipPath id="clip1_662_1770">
            <rect width="37" height="32" fill="white" transform="translate(70 16)"/>
        </clipPath>
        <clipPath id="clip2_662_1770">
            <rect width="40" height="32" fill="white" transform="translate(123 16)"/>
        </clipPath>
    </defs>
</svg>
