<svg width="24" height="24" viewBox="0 0 24 24" fill="none" xmlns="http://www.w3.org/2000/svg">
    <path d="M23.5663 11.3143H0.433735C0.19419 11.3143 0 11.5085 0 11.748V13.452C0 13.6915 0.19419 13.8857 0.433735 13.8857H23.5663C23.8058 13.8857 24 13.6915 24 13.452V11.748C24 11.5085 23.8058 11.3143 23.5663 11.3143Z"
          fill="#1B1B1B"/>
    <path d="M13.3711 23.5663L13.3711 0.433735C13.3711 0.19419 13.1769 0 12.9374 0L11.062 0C10.8224 0 10.6282 0.19419 10.6282 0.433735L10.6282 23.5663C10.6282 23.8058 10.8224 24 11.062 24H12.9374C13.1769 24 13.3711 23.8058 13.3711 23.5663Z"
          fill="#1B1B1B"/>
</svg>
