<svg width="129" height="45" viewBox="0 0 129 45" fill="none" xmlns="http://www.w3.org/2000/svg">
    <path d="M14.5626 0.499985C17.6494 0.499985 18.6193 2.64766 19.4331 4.79198C19.7749 5.70255 27.7963 27.011 28.0375 27.6506C28.1017 27.829 28.0583 28.1219 27.7755 28.2279C27.4909 28.3323 23.3232 29.9043 23.0924 29.9885C22.8616 30.0743 22.6031 29.9498 22.5198 29.7259C22.4331 29.5054 20.7032 24.86 20.5088 24.3416H8.61989C8.4325 24.86 6.68177 29.5155 6.60369 29.7259C6.52388 29.9397 6.27576 30.0844 6.02937 29.9885C5.78299 29.8942 1.59965 28.3222 1.34979 28.2279C1.11035 28.1371 1.00103 27.8728 1.08432 27.6506C1.37929 26.8528 9.27923 5.88601 9.68177 4.79198C10.466 2.67964 11.4689 0.499985 14.5626 0.499985ZM0.44927 38.628C0.199415 38.628 -0.00012207 38.83 -0.00012207 39.0757V44.0561C-0.00012207 44.3019 0.199415 44.5005 0.44927 44.5005H28.6638C28.9189 44.5005 29.1184 44.3019 29.1184 44.0561V39.0757C29.1184 38.83 28.9189 38.628 28.6638 38.628H0.44927ZM14.5349 7.45807L10.5164 19.1643H18.6193L14.5869 7.45807H14.5349ZM74.835 26.6525C74.2434 26.8461 73.853 26.8932 73.388 26.8932C72.4267 26.8932 71.894 26.5246 71.894 25.5686C71.894 24.5722 72.5707 24.2389 73.8998 24.2389C74.2243 24.2389 74.5435 24.2844 74.6927 24.3349V25.0485C74.6927 25.8177 74.7361 26.3226 74.835 26.6525ZM78.2515 27.7937C77.5418 26.7485 77.3561 26.1324 77.3561 24.8145V22.1384C77.3561 20.6976 77.1826 20.1775 76.7905 19.6524C76.2439 18.9084 75.333 18.5853 73.6586 18.5853C72.4735 18.5853 71.3232 18.7098 70.2092 18.9859L70.6118 20.8878C71.3648 20.7851 72.1543 20.6976 72.7113 20.6976C74.4897 20.6976 74.6927 20.9467 74.6927 22.241V22.7241C74.2971 22.6214 73.853 22.5474 73.3376 22.5474C70.6604 22.5474 69.2463 23.8181 69.2463 25.922C69.2463 27.8947 70.7575 28.9702 72.5985 28.9702C73.2856 28.9702 74.0039 28.8473 74.573 28.6218C74.9166 28.477 75.0658 28.3912 75.51 28.1118C75.7772 28.4888 76.3133 28.8743 76.532 28.9466L78.2515 27.7937ZM104.734 26.6525C104.139 26.8461 103.756 26.8932 103.287 26.8932C102.323 26.8932 101.783 26.5246 101.783 25.5686C101.783 24.5722 102.468 24.2389 103.801 24.2389C104.125 24.2389 104.446 24.2844 104.592 24.3349V25.0485C104.592 25.8177 104.634 26.3226 104.734 26.6525ZM108.154 27.7937C107.439 26.7485 107.257 26.1324 107.257 24.8145V22.1384C107.257 20.6976 107.08 20.1775 106.685 19.6524C106.145 18.9084 105.232 18.5853 103.553 18.5853C102.369 18.5853 101.212 18.7098 100.098 18.9859L100.496 20.8878C101.25 20.7851 102.042 20.6976 102.614 20.6976C104.382 20.6976 104.592 20.9467 104.592 22.241V22.7241C104.197 22.6214 103.756 22.5474 103.23 22.5474C100.549 22.5474 99.13 23.8181 99.13 25.922C99.13 27.8947 100.645 28.9702 102.494 28.9702C103.19 28.9702 103.902 28.8473 104.465 28.6218C104.814 28.477 104.958 28.3912 105.402 28.1118C105.673 28.4888 106.209 28.8743 106.43 28.9466L108.154 27.7937ZM129 28.7463C129 28.7463 127.532 25.7117 127.173 25.0216C126.769 24.244 126.394 23.707 125.568 23.5135V23.4697C126.121 23.3671 126.562 23.0422 127.044 22.0492C127.501 21.0814 127.636 20.8726 127.905 20.6421C128.169 20.4131 128.53 20.4956 128.53 20.4956L128.665 18.7065C128.282 18.656 127.856 18.6543 127.417 18.6778C126.689 18.7199 126.312 18.9236 125.953 19.2737C125.672 19.5413 125.481 19.9419 125.245 20.4014C124.995 20.9029 124.797 21.3069 124.537 21.8169C124.279 22.3403 124.157 22.576 123.461 22.576H123.009V14.6501H120.328V28.7463H123.009V24.6934L123.375 24.6866C124.143 24.6866 124.279 24.8735 124.685 25.6595C125.16 26.597 126.071 28.7463 126.071 28.7463H129ZM53.4811 28.7463H56.5748L51.8952 14.8857C51.4024 14.7258 50.7934 14.6265 50.1427 14.6265C49.4331 14.6265 49.1797 14.7174 48.6245 14.8857L43.6725 28.7463H46.6413C46.6413 28.7463 47.0421 27.5311 47.514 26.0247H52.643C53.1011 27.5294 53.4811 28.7463 53.4811 28.7463ZM48.2671 23.7003C48.2671 23.7003 49.1242 20.9181 49.2578 20.4855C49.5979 19.3646 50.115 17.5838 50.115 17.5838H50.2C50.2 17.5838 50.6789 19.4285 50.9912 20.4653C51.1092 20.8777 51.9282 23.7003 51.9282 23.7003H48.2671ZM82.8183 22.1148C81.8726 22.1148 81.104 22.8638 81.104 23.7811C81.104 24.7051 81.8726 25.4491 82.8183 25.4491C83.7656 25.4491 84.5308 24.7051 84.5308 23.7811C84.5308 22.8638 83.7656 22.1148 82.8183 22.1148ZM60.248 14.6501H57.5603V28.7447H60.248V14.6501ZM113.646 20.8255C115.131 20.8558 115.315 21.1537 115.315 22.3622V28.7463H117.978V22.1384C117.978 20.6976 117.805 20.1775 117.409 19.6524C116.863 18.9084 115.789 18.5853 113.972 18.5853C112.175 18.5853 111.029 18.7704 109.556 19.1962V28.7463H112.247V20.9467C112.954 20.8474 113.079 20.8255 113.646 20.8255ZM66.8952 14.3993C65.2156 14.3993 64.3012 14.7225 63.7633 15.4647C63.3677 15.9916 63.1925 16.5234 63.1925 17.9676V19.1962H61.8582V21.3035H63.1925V28.7463H65.8576L65.8507 21.3035H68.5071V19.1962H65.8507L65.8576 18.0669C65.8576 16.7742 66.0606 16.5234 67.8408 16.5234C68.0334 16.5234 68.2503 16.5335 68.4811 16.5504L68.901 14.5255C68.2434 14.4414 67.5701 14.3993 66.8952 14.3993ZM88.2786 14.5306C89.193 14.4784 91.237 14.4044 92.5192 14.4044C92.7535 14.4044 92.9964 14.406 93.2393 14.4178C95.7604 14.4178 97.2058 16.1986 97.2058 18.289C97.2058 19.7113 96.5343 20.6555 94.9605 21.2177C96.8119 21.6149 97.7818 23.017 97.7818 24.7321C97.7818 25.9911 97.4157 26.9908 96.7442 27.6725C95.8732 28.504 94.5545 28.9702 92.7986 28.9702C91.237 28.9702 89.2763 28.9231 88.2786 28.8659V14.5306ZM92.5192 16.8399C92.0751 16.8399 91.525 16.8483 90.9802 16.8668V20.2516H92.521C93.1317 20.2516 93.6228 20.0866 93.9576 19.7685C94.2769 19.4689 94.4435 19.0448 94.4435 18.5415C94.4435 17.4592 93.8397 16.8466 92.717 16.8399H92.5192ZM92.5748 26.5398H92.691C94.0912 26.5398 94.9484 25.8177 94.9588 24.3635C94.9449 23.8417 94.7384 23.3603 94.3689 23.0119C93.9646 22.6181 93.392 22.4127 92.7205 22.4127H90.9802V26.5246C91.4712 26.5347 92.0126 26.5364 92.5748 26.5398Z"
          fill="#EE2A23"/>
</svg>
