<svg width="10" height="17" viewBox="0 0 10 17" fill="none" xmlns="http://www.w3.org/2000/svg">
    <path d="M2.9375 10.875L2.3125 12.4688C2.25 12.625 2.15625 12.7812 2.03125 12.875L0.21875 14.7188C-0.09375 15 -0.09375 15.5 0.21875 15.7812C0.34375 15.9375 0.53125 16 0.71875 16C0.9375 16 1.125 15.9375 1.25 15.7812L3.0938 13.9375C3.3438 13.6875 3.5625 13.375 3.6875 13.0312L4.125 11.9688L2.96875 10.9375L2.9375 10.875ZM6.4688 3C7.3125 3 7.9688 2.34375 7.9688 1.5C7.9688 0.6875 7.3125 0 6.4688 0C5.6562 0 4.9688 0.6875 4.9688 1.5C4.9688 2.34375 5.6562 3 6.4688 3ZM9.75 8.4688L8.8438 7.5625C8.8125 7.5625 8.7812 7.5 8.7812 7.4688L8.375 6.25C7.9062 4.90625 6.6562 4 5.25 4C4.1562 4 3.5938 4.28125 2.25 4.8125C1.59375 5.09375 1.0625 5.59375 0.75 6.2188L0.3125 7.1875C-0.125 8.0938 1.25 8.7188 1.65625 7.8438L2.09375 6.875C2.25 6.5938 2.5 6.3438 2.8125 6.2188C3.5 5.9375 3.8438 5.8125 4.1875 5.6875L3.5938 8.1562C3.4375 8.75 3.5938 9.375 4.0312 9.875L6.5 12.1562C6.6875 12.3125 6.8125 12.5312 6.875 12.7812L7.5 15.4375C7.5625 15.8125 7.9375 16.0938 8.375 16C8.7812 15.9062 9.0312 15.5 8.9375 15.0938L8.3438 12.4688C8.2188 11.9062 7.9375 11.4375 7.5312 11.0625L5.8438 9.5L6.6562 6.2188C6.9062 6.5312 6.9062 6.625 7.3438 7.9688C7.4375 8.2188 7.5938 8.4688 7.7812 8.6562L8.6875 9.5625C9.375 10.2188 10.4688 9.1875 9.75 8.4688Z" fill="#999999"/>
</svg>
