<svg width="10" height="10" viewBox="0 0 10 10" fill="none" xmlns="http://www.w3.org/2000/svg">
    <path d="M5.12435 0.479156L5.54102 0.87499C5.64522 0.979156 5.64522 1.14582 5.54102 1.22916L2.31188 4.45832H9.41602C9.56185 4.45832 9.66602 4.58332 9.66602 4.70832V5.29166C9.66602 5.43746 9.56185 5.54166 9.41602 5.54166H2.31188L5.54102 8.79166C5.64522 8.87499 5.64522 9.04166 5.54102 9.14586L5.12435 9.54166C5.04102 9.64586 4.87435 9.64586 4.77015 9.54166L0.416016 5.18746C0.311882 5.08332 0.311882 4.93746 0.416016 4.83332L4.77015 0.479156C4.87435 0.37499 5.04102 0.37499 5.12435 0.479156Z" fill="#1B1B1B"/>
</svg>
