<svg width="28" height="28" viewBox="0 0 28 28" fill="none" xmlns="http://www.w3.org/2000/svg">
    <path d="M15.8 15.8001C14.3333 17.3134 14.2266 19.2001 14.1 23.3334C17.9533 23.3334 20.6133 23.3201 21.9866 21.9867C23.32 20.6134 23.3333 17.8267 23.3333 14.1001C19.2 14.2334 17.3133 14.3334 15.8 15.8001ZM4.66663 14.1001C4.66663 17.8267 4.67996 20.6134 6.01329 21.9867C7.38663 23.3201 10.0466 23.3334 13.9 23.3334C13.7666 19.2001 13.6666 17.3134 12.2 15.8001C10.6866 14.3334 8.79996 14.2267 4.66663 14.1001ZM13.9 4.66675C10.0533 4.66675 7.38663 4.68008 6.01329 6.01341C4.67996 7.38675 4.66663 10.1734 4.66663 13.9001C8.79996 13.7667 10.6866 13.6667 12.2 12.2001C13.6666 10.6867 13.7733 8.80008 13.9 4.66675ZM15.8 12.2001C14.3333 10.6867 14.2266 8.80008 14.1 4.66675C17.9533 4.66675 20.6133 4.68008 21.9866 6.01341C23.32 7.38675 23.3333 10.1734 23.3333 13.9001C19.2 13.7667 17.3133 13.6667 15.8 12.2001Z"
          fill="#1B1B1B"/>
    <path d="M23.3333 14.1001V13.9001C19.2 13.7667 17.3133 13.6667 15.8 12.2001C14.3333 10.6867 14.2266 8.80008 14.1 4.66675H13.9C13.7666 8.80008 13.6666 10.6867 12.2 12.2001C10.6866 13.6667 8.79996 13.7734 4.66663 13.9001V14.1001C8.79996 14.2334 10.6866 14.3334 12.2 15.8001C13.6666 17.3134 13.7733 19.2001 13.9 23.3334H14.1C14.2333 19.2001 14.3333 17.3134 15.8 15.8001C17.3133 14.3334 19.2 14.2267 23.3333 14.1001Z"
          fill="white"/>
</svg>
