<svg width="20" height="12" viewBox="0 0 20 12" fill="none" xmlns="http://www.w3.org/2000/svg">
    <path d="M19.3697 0.968831C19.4792 0.531331 19.3697 0.166748 18.7136 0.166748H16.5625C16.0156 0.166748 15.7604 0.458415 15.6146 0.78654C15.6146 0.78654 14.5208 3.448 12.9896 5.198C12.4792 5.67202 12.2604 5.85425 11.9687 5.85425C11.8594 5.85425 11.6406 5.67201 11.6406 5.23451V0.968831C11.6406 0.421956 11.4947 0.166748 11.0208 0.166748H7.66667C7.30208 0.166748 7.11979 0.421956 7.11979 0.677165C7.11979 1.18758 7.88542 1.29696 7.95833 2.75529V5.92717C7.95833 6.61982 7.8489 6.76565 7.55729 6.76565C6.82812 6.76565 5.07812 4.06785 4.02083 1.00529C3.80208 0.421956 3.58333 0.166748 3.03646 0.166748H0.885417C0.302083 0.166748 0.15625 0.458415 0.15625 0.78654C0.15625 1.36987 0.885417 4.17717 3.54687 7.93232C5.33333 10.4845 7.8489 11.8334 10.1094 11.8334C11.4583 11.8334 11.6406 11.5417 11.6406 11.0313C11.6406 8.58868 11.5312 8.33342 12.1875 8.33342C12.5156 8.33342 13.0625 8.51565 14.3386 9.75535C15.7969 11.2137 16.0521 11.8334 16.8542 11.8334H19.0053C19.625 11.8334 19.9167 11.5417 19.7344 10.922C19.3333 9.68231 16.5989 7.05732 16.4531 6.87508C16.125 6.47398 16.2344 6.29175 16.4531 5.92717C16.4531 5.92717 19.0781 2.20841 19.3697 0.968831Z" fill="#1B1B1B"/>
</svg>
