<svg width="20" height="14" viewBox="0 0 20 14" fill="none" xmlns="http://www.w3.org/2000/svg">
    <path d="M19.5155 2.22396C19.2969 1.34896 18.6041 0.65625 17.7655 0.4375C16.1979 0 9.99996 0 9.99996 0C9.99996 0 3.76558 0 2.19788 0.4375C1.35933 0.65625 0.666626 1.34896 0.447876 2.22396C0.010376 3.75521 0.010376 7.0364 0.010376 7.0364C0.010376 7.0364 0.010376 10.2812 0.447876 11.8489C0.666626 12.7239 1.35933 13.3803 2.19788 13.5989C3.76558 14 9.99996 14 9.99996 14C9.99996 14 16.1979 14 17.7655 13.5989C18.6041 13.3803 19.2969 12.7239 19.5155 11.8489C19.953 10.2812 19.953 7.0364 19.953 7.0364C19.953 7.0364 19.953 3.75521 19.5155 2.22396ZM7.95829 9.98958V4.08333L13.1354 7.0364L7.95829 9.98958Z"
          fill="#1B1B1B"/>
</svg>
